:SAMPLES-PER-SECOND 30
:FULLY-SPECIFIED
:DEGREES
1
root  -0.219681 41.0538 -3.72334 178.132 -84.0699 -176.839
RightUpLeg  -1.66564 -6.73479 -4.52396
RightLeg  2.78407 2.78166 2.89797
RightFoot  -1.33932 -0.0104087 0.00655842
RightToes  -4.65663e-010 0 -3.6325e-017
Spine  1.57628 0.985484 3.17841
Spine1  3.37145 1.6076 -3.09244
HEad  -8.19608 -4.03727 1.02185
LeftShoulder1  0.485421 0.648817 -9.71945
LeftArm  -14.7418 14.7545 -4.45979
LeftForeArm  10.7736 -4.76217 -2.52347
LeftHand  -0.244104 0.0205437 5.32207
RightShoulder  0.522518 -0.337203 8.63772
RightArm  -14.3807 -6.92411 1.86442
RightForeArm  3.29082 4.49483 4.46703
RightHand  -0.598429 0.441047 -11.9884
LeftUpLeg  0.0778642 5.50633 3.05814
LeftLeg  2.30249 16.0923 -3.78514
LeftFoot  -3.52487 -0.0192757 0.760425
LeftToes  -7.27628e-011 -1.6005e-012 -1.37987e-011
2
root  -0.220683 41.0538 -3.72902 178.191 -84.0652 -176.868
RightUpLeg  -1.69517 -6.7218 -4.51473
RightLeg  2.78079 2.78166 2.89797
RightFoot  -1.35957 -0.00910917 -0.0136195
RightToes  -4.65663e-010 0 -3.6325e-017
Spine  1.58033 0.985487 3.0517
Spine1  3.35005 1.57725 -2.93249
HEad  -8.18605 -4.01408 0.955693
LeftShoulder1  0.485421 0.675328 -9.77021
LeftArm  -14.7839 14.7485 -4.48551
LeftForeArm  10.8729 -4.71579 -2.49856
LeftHand  -0.244104 0.0205437 5.32207
RightShoulder  0.522477 -0.324251 8.56531
RightArm  -14.3607 -6.91606 1.88688
RightForeArm  3.44235 4.42137 4.45365
RightHand  -0.597335 0.466042 -11.918
LeftUpLeg  0.031025 5.51172 3.05914
LeftLeg  2.33706 16.0982 -3.77849
LeftFoot  -3.53752 -0.0189305 0.755059
LeftToes  -7.27628e-011 -1.6005e-012 -1.37987e-011
3
root  -0.224752 41.0538 -3.73687 178.3 -84.0501 -176.949
RightUpLeg  -1.73552 -6.711 -4.50314
RightLeg  2.80676 2.78166 2.89797
RightFoot  -1.37999 -0.00767428 -0.0358989
RightToes  -4.65663e-010 0 -3.6325e-017
Spine  1.59147 0.985886 2.88899
Spine1  3.35327 1.54382 -2.72953
HEad  -8.17311 -4.00061 0.877097
LeftShoulder1  0.485205 0.715584 -9.85901
LeftArm  -14.8541 14.7242 -4.50149
LeftForeArm  11.0275 -4.66305 -2.46117
LeftHand  -0.244104 0.0205437 5.32207
RightShoulder  0.522428 -0.299302 8.47745
RightArm  -14.3714 -6.92179 1.90957
RightForeArm  3.67459 4.33887 4.42443
RightHand  -0.593144 0.492006 -11.7851
LeftUpLeg  0.000709803 5.51629 3.06303
LeftLeg  2.3492 16.1133 -3.78147
LeftFoot  -3.53877 -0.0182912 0.745123
LeftToes  -7.27628e-011 -1.6005e-012 -1.37987e-011
4
root  -0.231407 41.0538 -3.74189 178.356 -84.0397 -177.002
RightUpLeg  -1.7484 -6.70734 -4.49748
RightLeg  2.84808 2.78249 2.89858
RightFoot  -1.38916 -0.00788284 -0.0326606
RightToes  -4.65663e-010 0 -3.6325e-017
Spine  1.62484 0.983549 2.79435
Spine1  3.3513 1.52049 -2.62057
HEad  -8.0936 -4.00932 0.855071
LeftShoulder1  0.483677 0.729525 -9.93251
LeftArm  -14.932 14.7228 -4.47669
LeftForeArm  11.1612 -4.64552 -2.42098
LeftHand  -0.244104 0.0205437 5.32207
RightShoulder  0.522399 -0.24804 8.42335
RightArm  -14.4183 -6.98575 1.91876
RightForeArm  3.74 4.37141 4.40577
RightHand  -0.583012 0.440219 -11.6844
LeftUpLeg  0.014774 5.52413 3.07163
LeftLeg  2.34244 16.1139 -3.79458
LeftFoot  -3.53799 -0.017575 0.733992
LeftToes  -7.27628e-011 -1.6005e-012 -1.37987e-011
5
root  -0.238256 41.0538 -3.74469 178.334 -84.0353 -176.999
RightUpLeg  -1.72926 -6.70613 -4.49827
RightLeg  2.87201 2.7892 2.90279
RightFoot  -1.40014 -0.00874818 -0.0192246
RightToes  -4.65663e-010 0 -3.6325e-017
Spine  1.68438 0.970234 2.74111
Spine1  3.30977 1.49782 -2.57165
HEad  -7.94128 -4.02174 0.88452
LeftShoulder1  0.478988 0.743621 -9.96268
LeftArm  -14.989 14.7279 -4.45483
LeftForeArm  11.2306 -4.6376 -2.39231
LeftHand  -0.244104 0.0205437 5.32207
RightShoulder  0.521341 -0.20341 8.38849
RightArm  -14.4332 -7.04712 1.92748
RightForeArm  3.64956 4.46964 4.41481
RightHand  -0.570269 0.326299 -11.6492
LeftUpLeg  0.0439728 5.53775 3.08613
LeftLeg  2.35317 16.1004 -3.80265
LeftFoot  -3.55222 -0.0164973 0.717242
LeftToes  -7.27628e-011 -1.6005e-012 -1.37987e-011
6
root  -0.244038 41.0538 -3.74779 178.282 -84.0253 -176.963
RightUpLeg  -1.70277 -6.70715 -4.49729
RightLeg  2.87214 2.80694 2.91207
RightFoot  -1.41327 -0.008285 -0.0264163
RightToes  -4.65663e-010 0 -3.6325e-017
Spine  1.72738 0.962485 2.68738
Spine1  3.28287 1.47865 -2.51666
HEad  -7.82154 -4.05126 0.915061
LeftShoulder1  0.474824 0.777497 -9.95726
LeftArm  -15.0126 14.7085 -4.48515
LeftForeArm  11.2352 -4.62776 -2.38584
LeftHand  -0.244104 0.0205437 5.32207
RightShoulder  0.516787 -0.214926 8.35506
RightArm  -14.4097 -7.03159 1.95022
RightForeArm  3.58897 4.51517 4.43264
RightHand  -0.561168 0.233179 -11.6463
LeftUpLeg  0.0627708 5.54854 3.10027
LeftLeg  2.37461 16.0953 -3.798
LeftFoot  -3.56935 -0.0150802 0.695218
LeftToes  -7.27628e-011 -1.6005e-012 -1.37987e-011
7
root  -0.249358 41.0538 -3.75135 178.261 -84.0095 -176.941
RightUpLeg  -1.6919 -6.70984 -4.49184
RightLeg  2.87257 2.8253 2.91904
RightFoot  -1.41838 -0.00685405 -0.0486347
RightToes  -4.65663e-010 0 -3.6325e-017
Spine  1.72036 0.963482 2.64025
Spine1  3.31721 1.46843 -2.46068
HEad  -7.80017 -4.11985 0.907328
LeftShoulder1  0.476412 0.776761 -9.94226
LeftArm  -15.032 14.7283 -4.54115
LeftForeArm  11.2357 -4.66235 -2.38441
LeftHand  -0.244104 0.0205437 5.32207
RightShoulder  0.514181 -0.246502 8.31505
RightArm  -14.425 -7.00308 1.99039
RightForeArm  3.5692 4.52542 4.43267
RightHand  -0.555371 0.162123 -11.6681
LeftUpLeg  0.0684319 5.55069 3.10733
LeftLeg  2.38451 16.1023 -3.78859
LeftFoot  -3.57514 -0.01417 0.681072
LeftToes  -7.27628e-011 -1.6005e-012 -1.37987e-011
8
root  -0.254645 41.0538 -3.75375 178.282 -83.9944 -176.955
RightUpLeg  -1.69375 -6.71312 -4.488
RightLeg  2.87234 2.83887 2.92044
RightFoot  -1.41696 -0.00639253 -0.055801
RightToes  -4.65663e-010 0 -3.6325e-017
Spine  1.70489 0.958408 2.61883
Spine1  3.35074 1.4592 -2.43853
HEad  -7.80032 -4.20048 0.876294
LeftShoulder1  0.48722 0.712404 -9.93093
LeftArm  -15.0613 14.8458 -4.56622
LeftForeArm  11.2866 -4.75032 -2.37
LeftHand  -0.244104 0.0205437 5.32207
RightShoulder  0.517733 -0.213285 8.26554
RightArm  -14.4913 -7.07327 2.03713
RightForeArm  3.45173 4.58853 4.42112
RightHand  -0.55018 0.0684594 -11.7496
LeftUpLeg  0.0719614 5.54912 3.10755
LeftLeg  2.38137 16.111 -3.78535
LeftFoot  -3.577 -0.0142374 0.682119
LeftToes  -7.27628e-011 -1.6005e-012 -1.37987e-011
9
root  -0.259603 41.0538 -3.75504 178.321 -83.9732 -176.991
RightUpLeg  -1.69393 -6.71621 -4.48684
RightLeg  2.87225 2.85825 2.91877
RightFoot  -1.42047 -0.00717315 -0.0436801
RightToes  -4.65663e-010 0 -3.6325e-017
Spine  1.73991 0.944354 2.61729
Spine1  3.31114 1.44755 -2.45023
HEad  -7.73297 -4.25593 0.872523
LeftShoulder1  0.494736 0.666097 -9.91333
LeftArm  -15.0616 14.9634 -4.5728
LeftForeArm  11.3546 -4.81248 -2.36116
LeftHand  -0.244104 0.0205437 5.32207
RightShoulder  0.52975 -0.130393 8.23188
RightArm  -14.5134 -7.19841 2.06381
RightForeArm  3.31187 4.65348 4.41884
RightHand  -0.551073 0.0278599 -11.8526
LeftUpLeg  0.0860731 5.54455 3.10344
LeftLeg  2.3668 16.1328 -3.78506
LeftFoot  -3.57713 -0.0141242 0.680359
LeftToes  -7.27628e-011 -1.6005e-012 -1.37987e-011
10
root  -0.264691 41.0538 -3.75699 178.355 -83.9411 -177.026
RightUpLeg  -1.68827 -6.71849 -4.48662
RightLeg  2.8691 2.88633 2.91485
RightFoot  -1.43014 -0.00795912 -0.0314762
RightToes  -4.65663e-010 0 -3.6325e-017
Spine  1.80338 0.936459 2.62077
Spine1  3.24496 1.44478 -2.4743
HEad  -7.64096 -4.30119 0.919346
LeftShoulder1  0.487736 0.702813 -9.88639
LeftArm  -15.008 14.9594 -4.60615
LeftForeArm  11.3602 -4.81046 -2.38438
LeftHand  -0.244104 0.0205437 5.32207
RightShoulder  0.534014 -0.109294 8.26361
RightArm  -14.4489 -7.23091 2.04356
RightForeArm  3.39095 4.59594 4.42196
RightHand  -0.56382 0.154036 -11.8612
LeftUpLeg  0.111219 5.5289 3.09443
LeftLeg  2.33801 16.1824 -3.77455
LeftFoot  -3.57743 -0.0123866 0.653354
LeftToes  -7.27628e-011 -1.6005e-012 -1.37987e-011
11
root  -0.270607 41.0538 -3.76028 178.381 -83.9176 -177.046
RightUpLeg  -1.67891 -6.71935 -4.48595
RightLeg  2.85192 2.90528 2.91136
RightFoot  -1.43538 -0.0082593 -0.0268153
RightToes  -4.65663e-010 0 -3.6325e-017
Spine  1.8256 0.937706 2.61538
Spine1  3.24492 1.44986 -2.48927
HEad  -7.62213 -4.35036 0.98525
LeftShoulder1  0.481377 0.738694 -9.87863
LeftArm  -14.9509 14.9124 -4.64168
LeftForeArm  11.3025 -4.82409 -2.41983
LeftHand  -0.244104 0.0205437 5.32207
RightShoulder  0.525426 -0.182873 8.36372
RightArm  -14.3873 -7.15777 1.98146
RightForeArm  3.65074 4.46752 4.41463
RightHand  -0.577267 0.343521 -11.7567
LeftUpLeg  0.129425 5.50484 3.0833
LeftLeg  2.31187 16.2329 -3.75268
LeftFoot  -3.5777 -0.00966871 0.611113
LeftToes  -7.27628e-011 -1.6005e-012 -1.37987e-011
